<svg width="1080" height="1637" viewBox="0 0 1080 1637" fill="none" xmlns="http://www.w3.org/2000/svg">
<path d="M994.27 142.996C992.071 138.68 996.68 134.072 1001 136.271L1009.94 140.829C1011.87 141.812 1014.22 141.441 1015.75 139.909L1022.85 132.81C1026.27 129.385 1032.08 132.343 1031.32 137.127L1029.75 147.044C1029.41 149.184 1030.49 151.298 1032.42 152.281L1041.36 156.84C1045.68 159.039 1044.66 165.476 1039.88 166.233L1029.96 167.804C1027.82 168.143 1026.14 169.821 1025.8 171.96L1024.23 181.877C1023.48 186.661 1017.04 187.681 1014.84 183.365L1010.28 174.419C1009.3 172.489 1007.18 171.411 1005.04 171.75L995.127 173.321C990.343 174.079 987.385 168.272 990.81 164.847L997.909 157.747C999.441 156.216 999.812 153.872 998.829 151.942L994.27 142.996Z" fill="#DCE3E4"/>
<path d="M716.229 814.803C703.671 796.375 713.48 787.655 716.852 778.031C720.225 768.407 682.11 798.899 675.001 813.553C672.976 817.729 684.262 816.284 686.684 820.244C687.823 822.106 685.82 824.91 684.294 826.472C669.55 841.567 657.131 853.05 661.946 856.15C666.761 859.251 673.149 856.798 680.188 855.685C692.461 853.743 706.25 841.978 709.647 843.667C713.045 845.357 708.741 850.768 709.811 853.284C711.237 856.641 715.54 854.19 721.191 851.349C726.841 848.507 738.349 840.632 750.262 824.13C758.328 812.956 728.774 833.211 716.229 814.803Z" fill="#FE9100"/>
<path d="M732.148 717.014C744.068 709.802 753.33 713.595 756.471 716.393L824.441 786.03C825.96 790.788 826.46 803.279 816.305 815.181C803.611 830.06 790.884 830.796 788.695 832.003C786.944 832.968 782.684 831.663 780.773 830.889C779.239 829.832 776.14 827.209 776.022 825.172C775.905 823.136 776.23 812.915 776.408 808.059L729.351 762.063C728.15 762.231 724.994 761.451 721.429 760.949C717.864 760.448 714.002 759.906 711.171 758.498C706.072 755.257 706.183 754.465 706.35 753.276C706.589 751.581 707.706 748.418 708.245 746.979C711.246 739.995 720.229 724.225 732.148 717.014Z" fill="#FB9300"/>
<path d="M749.096 725.762C775.316 688.65 836.467 682.501 859.823 692.348C863.191 711.503 854.559 756.236 829.977 782.572C802.895 811.585 741.746 821.168 726.573 803.383C718.41 789.613 722.162 763.885 749.096 725.762Z" fill="#8C52FF"/>
<circle cx="807.669" cy="736.519" r="25" transform="rotate(8 807.669 736.519)" fill="#40C0F1"/>
<circle cx="830" cy="315" r="250" fill="#6E4FA9"/>
<path fill-rule="evenodd" clip-rule="evenodd" d="M849.203 128.408C812.379 101.97 763.839 85.4441 743.614 80.3271C710.724 92.4381 681.084 111.266 656.354 135.147C661.654 136.05 672.149 141.376 681.913 157.753C692.04 174.741 710.849 182.145 733.113 190.91C740.668 193.884 748.621 197.015 756.767 200.73C782.902 212.649 819.328 211.873 852.552 211.165C860.201 211.002 867.681 210.843 874.826 210.843C905.371 210.843 946.834 218.933 963.748 222.978C995.295 231.691 1056.41 254.327 1077.82 281.839C1073.8 251.514 1064.35 222.905 1050.47 197.023C1047.13 199.192 973.264 197.401 957.438 192.514C941.558 187.61 895.642 161.75 849.203 128.408ZM580 315C580 270.193 591.788 228.138 612.432 191.769C616.074 193.023 622.467 192.531 630.884 191.883H630.884C655.729 189.969 698.214 186.696 739.686 222.978C791.934 268.686 809.015 295.955 811.024 303.877C817.555 311.292 835.038 326.124 852.722 326.124C874.826 326.124 952.695 335.73 980.828 363.034C1003.34 384.877 1044.46 400.112 1062.21 405C1063.77 401.841 1065.5 398.106 1067.29 393.928C1060.35 414.785 1050.74 434.421 1038.87 452.43C1037.95 448.114 1035.1 450.706 1029.73 455.58C1016.54 467.566 988.15 493.359 935.892 464.176C875.283 430.33 852.906 407.208 849.294 399.877C841.364 393.982 821.179 383.109 803.882 386.786C782.26 391.382 704.096 398.175 670.9 377.317C644.504 360.731 601.467 354.356 582.901 353.209C580.991 340.752 580 327.992 580 315ZM666.937 504.507C670.006 507.15 673.14 509.719 676.336 512.213C698.716 517.581 745.61 525.213 787.739 520.281C844.52 513.634 897.216 513.276 913.483 516.686C920.393 518.135 936.256 525.189 952.327 533.079C958.326 529.707 964.171 526.094 969.851 522.254C959.584 522.528 945.168 520.777 935.892 510.761C922.677 496.491 920.3 496.113 906.313 493.888C901.251 493.083 894.668 492.036 885.501 490.001C863.104 485.029 852.117 489.128 836.946 494.787C828.748 497.845 819.329 501.359 806.228 504.143C776.351 510.494 734.112 511.201 716.727 510.761C703.713 509.979 685.648 508.011 666.937 504.507Z" fill="#7F5EA0"/>
<path fill-rule="evenodd" clip-rule="evenodd" d="M580.821 291.592C583.401 269.073 588.803 241.913 601.093 214.117C625.358 215.711 653.875 222.469 669.633 228.276C703.812 240.871 745.748 273.724 766.456 296.597C768.123 298.439 770.927 300.294 774.417 302.602C783.863 308.85 798.333 318.422 808.905 340.063C809.106 341.006 809.532 342.235 810.027 343.662C812.405 350.52 816.376 361.971 804.595 368.499C795.612 373.478 779.637 369.927 762.886 366.204C752.067 363.799 740.925 361.322 731.134 361.025C711.612 360.432 663.748 350.271 639.302 335.064C616.66 320.978 591.699 304.814 580.821 291.592Z" fill="#8867AC"/>
<path d="M722.124 292.006C724.733 295.672 728.126 299.661 727.847 313.88C728.29 316.678 726.886 321.9 720.607 325.331C714.084 328.895 710.212 330.015 699.372 328.694C690.891 327.661 670.196 320.748 659.742 312.179C649.92 304.128 640.134 293.854 634.621 287.809C627.772 280.3 627.517 268.797 636.436 263.74C645.355 258.682 671.224 263.619 674.751 264.579C690.325 268.818 713.383 279.722 722.124 292.006Z" fill="#76578E"/>
<path d="M814.307 141.553C817.165 145.029 820.827 148.771 821.541 162.975C822.178 165.735 821.142 171.042 815.118 174.903C808.859 178.913 805.074 180.3 794.169 179.739C785.636 179.3 764.51 173.848 753.483 166.028C743.124 158.682 732.645 149.116 726.723 143.47C719.367 136.457 718.311 125.001 726.855 119.333C735.399 113.666 761.55 116.786 765.135 117.498C780.967 120.641 804.73 129.909 814.307 141.553Z" fill="#624795"/>
<path d="M989 384.5C993.149 386.242 1011 400.674 1015 418C1015.64 420.761 1017.02 444.14 1011 448C1004.74 452.011 974.906 448.561 964 448C955.467 447.561 934.409 431.112 923.382 423.293C913.023 415.947 858.422 374.646 852.5 369C845.144 361.987 870.5 353 889.5 353C899.753 353 928.415 362.289 932 363C947.832 366.143 964 374 989 384.5Z" fill="#624795"/>
<path d="M1042.22 297.002C1044.83 300.668 1061.28 323.267 1061 337.485C1061.44 340.284 1056.28 360.069 1050 363.5C1043.48 367.065 1019.84 349.321 1009 348C1000.52 346.967 952.954 326.069 942.5 317.5C932.678 309.449 852.013 275.104 846.5 269.059C839.651 261.55 890.581 255.057 899.5 250C908.419 244.942 991.322 258.292 994.849 259.252C1010.42 263.492 1033.48 284.718 1042.22 297.002Z" fill="#8A68A3"/>
<path d="M788.613 482.223C792.826 480.642 819.098 471.104 826.818 459.16C828.75 457.088 835.533 437.797 832.246 431.441C828.831 424.839 799.313 426.331 789.588 421.365C781.979 417.478 730.86 408.206 717.401 409.464C704.756 410.646 618.677 394.012 610.726 395.941C600.849 398.336 639.441 432.199 644.007 441.379C648.573 450.559 724.768 485.851 728.229 487.027C743.512 492.221 774.497 487.518 788.613 482.223Z" fill="#8A68A3"/>
<circle cx="158.772" cy="1349.77" r="250" transform="rotate(109 158.772 1349.77)" fill="#6E4FA9"/>
<path fill-rule="evenodd" clip-rule="evenodd" d="M328.946 1428.68C365.933 1402.47 397.361 1361.95 408.784 1344.49C408.04 1309.45 399.889 1275.3 385.36 1244.14C382.78 1248.86 374.328 1257.05 355.664 1260.95C336.305 1264.99 323.18 1280.37 307.645 1298.56C302.373 1304.74 296.823 1311.24 290.658 1317.73C270.88 1338.56 259.755 1373.26 249.607 1404.9C247.271 1412.19 244.987 1419.31 242.66 1426.07C232.716 1454.95 211.568 1491.52 202.237 1506.19C183.727 1533.18 142.426 1583.6 109.444 1594.89C139.425 1600.96 169.554 1601.33 198.544 1596.64C197.581 1592.77 223.321 1523.52 233.094 1510.14C242.902 1496.73 282.302 1461.73 328.946 1428.68ZM240.164 1113.39C282.53 1127.98 318.455 1152.82 346.122 1184.18C343.75 1187.21 342.135 1193.42 340.007 1201.59L340.007 1201.59C333.728 1225.7 322.991 1266.94 275.184 1294.34C214.956 1328.86 183.611 1336.13 175.467 1335.45C166.329 1339.21 146.614 1350.91 140.857 1367.63C133.66 1388.53 99.225 1459.03 64.2499 1476.74C36.2698 1490.91 8.4739 1524.84 -1.92652 1540.03C0.553575 1542.54 3.52396 1545.38 6.89123 1548.43C-10.5714 1535.09 -26.0101 1519.61 -39.1728 1502.52C-34.7916 1503.05 -36.3131 1499.51 -39.175 1492.85C-46.2133 1476.48 -61.3583 1441.24 -16.7526 1401.33C34.982 1355.04 64.13 1341.41 72.2372 1340.38C80.3936 1334.8 97.2451 1319.26 99.4002 1301.71C102.094 1279.77 121.119 1203.65 151.647 1179.05C175.924 1159.49 195.963 1120.88 203.092 1103.7C215.492 1105.95 227.88 1109.16 240.164 1113.39ZM32.6775 1133.9C29.1796 1135.94 25.7298 1138.06 22.3315 1140.27C9.96905 1159.69 -12.5138 1201.54 -21.5664 1242.98C-33.7672 1298.83 -50.5855 1348.77 -59.1057 1363.04C-62.7251 1369.11 -74.5595 1381.81 -87.2516 1394.44C-86.0162 1401.2 -84.5037 1407.91 -82.7221 1414.53C-79.6383 1404.73 -73.2897 1391.67 -60.7995 1386.16C-43.0036 1378.31 -41.8723 1376.19 -35.2151 1363.69C-32.8059 1359.16 -29.6728 1353.28 -24.7642 1345.27C-12.772 1325.72 -13.0701 1313.99 -13.4818 1297.81C-13.7042 1289.06 -13.9598 1279.01 -12.3276 1265.72C-8.60509 1235.4 4.47759 1195.23 10.5536 1178.94C15.5304 1166.89 23.2722 1150.45 32.6775 1133.9Z" fill="#7F5EA0"/>
<path fill-rule="evenodd" clip-rule="evenodd" d="M262.029 1121.79C282.481 1131.56 306.403 1145.51 328.683 1166.18C319.276 1188.6 303.602 1213.37 292.982 1226.38C269.945 1254.59 225.229 1283.55 196.86 1295.68C194.575 1296.66 191.909 1298.71 188.59 1301.25C179.608 1308.15 165.846 1318.72 141.942 1321.67C140.985 1321.55 139.684 1321.55 138.174 1321.56C130.915 1321.57 118.796 1321.6 116.458 1308.33C114.676 1298.22 123.234 1284.27 132.208 1269.64C138.004 1260.2 143.973 1250.47 147.442 1241.31C154.358 1223.04 179.549 1181.09 201.887 1162.93C222.576 1146.11 245.986 1127.77 262.029 1121.79Z" fill="#8867AC"/>
<path d="M215.634 1255.26C211.318 1256.53 206.442 1258.44 193.089 1253.55C190.299 1253.06 185.819 1250.03 184.619 1242.98C183.372 1235.65 183.574 1231.62 188.352 1221.8C192.09 1214.12 205.364 1196.8 216.87 1189.71C227.68 1183.04 240.58 1177.13 248.091 1173.89C257.421 1169.86 268.379 1173.36 270.258 1183.44C272.136 1193.52 259.046 1216.37 256.99 1219.4C247.911 1232.74 230.095 1250.99 215.634 1255.26Z" fill="#76578E"/>
<path d="M327.879 1391.4C323.662 1392.97 318.931 1395.22 305.269 1391.27C302.451 1390.97 297.771 1388.26 296.082 1381.31C294.327 1374.09 294.248 1370.06 298.329 1359.93C301.522 1352 313.556 1333.8 324.539 1325.92C334.858 1318.52 347.314 1311.73 354.58 1307.97C363.606 1303.29 374.782 1306.03 377.359 1315.95C379.936 1325.87 368.472 1349.58 366.632 1352.74C358.506 1366.69 342.006 1386.14 327.879 1391.4Z" fill="#624795"/>
<path d="M41.293 1477.48C38.2946 1480.84 18.8372 1493.02 1.15337 1491.16C-1.66446 1490.86 -24.2213 1484.56 -25.9103 1477.61C-27.665 1470.39 -14.6898 1443.3 -10.6087 1433.17C-7.41556 1425.25 14.9932 1410.69 25.9761 1402.81C36.295 1395.41 93.1221 1357.23 100.388 1353.47C109.414 1348.79 109.656 1375.69 103.471 1393.66C100.133 1403.35 82.0188 1427.43 80.1786 1430.59C72.0525 1444.53 59.3601 1457.26 41.293 1477.48Z" fill="#624795"/>
<path d="M106.696 1556.29C102.38 1557.57 75.6583 1565.76 62.3051 1560.87C59.5148 1560.37 42.4887 1549.05 41.2888 1542C40.0423 1534.67 64.5149 1518.1 69.2926 1508.28C73.0308 1500.59 108.276 1462.42 119.782 1455.33C130.592 1448.66 189.327 1383.57 196.838 1380.33C206.167 1376.3 195.725 1426.57 197.603 1436.65C199.482 1446.73 159.868 1520.77 157.812 1523.79C148.733 1537.13 121.157 1552.03 106.696 1556.29Z" fill="#8A68A3"/>
<path d="M14.1342 1256.2C14.2572 1260.7 14.7221 1288.64 23.5021 1299.83C24.8323 1302.33 40.8636 1315.02 47.9432 1313.99C55.2975 1312.91 63.4966 1284.51 71.3592 1276.93C77.5109 1271 102.921 1225.69 106.113 1212.55C109.112 1200.21 152.864 1124.24 153.63 1116.09C154.58 1105.97 109.998 1131.44 99.8317 1132.77C89.6653 1134.1 31.4896 1194.65 29.2506 1197.54C19.3638 1210.3 13.7224 1241.13 14.1342 1256.2Z" fill="#8A68A3"/>
<circle cx="829.539" cy="1100" r="75" fill="#295DA6"/>
<circle cx="829.539" cy="1100" r="90" fill="url(#paint0_linear_179_3)" fill-opacity="0.3"/>
<path d="M832.042 1027.47C836.256 1026.93 841.099 1025.86 852.591 1032.64C855.085 1033.54 858.698 1037.14 858.574 1044.08C858.444 1051.28 857.553 1055.1 851.417 1063.74C846.616 1070.5 831.311 1084.98 819.43 1089.96C808.267 1094.64 795.304 1098.27 787.791 1100.2C778.458 1102.59 768.938 1097.52 768.964 1087.59C768.991 1077.66 785.094 1057.85 787.524 1055.28C798.255 1043.94 817.924 1029.28 832.042 1027.47Z" fill="#4B8DC1" fill-opacity="0.3"/>
<path d="M790.422 1046.04C788.822 1042.84 789.755 1037.67 790.422 1036C802.039 1028 819.039 1025 825.539 1025C827.6 1025 825.384 1034.54 821.922 1039.54C816.422 1047.49 811.922 1050.04 802.422 1051.04C796.922 1051.04 792.022 1049.24 790.422 1046.04Z" fill="#457FB9"/>
<path d="M755.928 1084.78C755.928 1084.78 757.93 1073.82 763.934 1062.87C769.393 1052.9 774.442 1075.81 770.439 1084.78C766.436 1093.74 764.436 1101.45 768.438 1109.68C771.268 1115.5 780.446 1122.63 780.446 1122.63C780.446 1122.63 794.457 1125.12 798.96 1117.15C803.464 1109.18 798.96 1098.23 819.976 1077.81C827.217 1072.51 827.481 1058.56 839.991 1054.9C865.51 1047.43 851.776 1028.72 853.501 1029C856.503 1029.5 863.508 1032.49 864.008 1033.49C864.509 1034.48 863.008 1059.88 850.999 1060.88C838.99 1061.87 843.493 1068.85 833.486 1081.3C819.142 1094.25 800.962 1119.24 828.983 1129.6C857.003 1139.96 874.016 1128.61 895.032 1095.24L902.037 1081.29C904.038 1087.27 904.539 1092.75 904.539 1096.73C875.017 1157.49 840.491 1156 824.98 1156C813.735 1156 766.025 1147.3 758.43 1124.62C752.926 1108.19 754.427 1089.76 755.928 1084.78Z" fill="#4882BA"/>
<path d="M759.539 1072L764.039 1063C729.039 1043.5 699.039 1041 699.039 1041C699.039 1041 675.039 1037.5 669.64 1043.11C666.039 1044.5 676.94 1060.11 720.14 1088.11C763.34 1116.11 850.539 1154.5 890.539 1168C912.039 1177 951.94 1186.61 971.14 1188.61C990.34 1190.61 992.807 1185.45 991.64 1182.61C988.807 1178.78 979.04 1168.61 962.64 1158.61C946.24 1148.61 899.039 1131 898.539 1130C898.039 1129 892.039 1139 892.539 1141C893.039 1143 979.94 1183.01 905.14 1162.61C811.64 1137.11 709.64 1066.61 713.14 1063.11C715.94 1060.31 746.872 1068 759.539 1072Z" fill="url(#paint1_linear_179_3)"/>
<path d="M591.27 428.996C589.071 424.68 593.68 420.072 597.995 422.271L606.942 426.829C608.872 427.812 611.215 427.441 612.747 425.909L619.847 418.81C623.272 415.385 629.079 418.343 628.321 423.127L626.75 433.044C626.411 435.184 627.489 437.298 629.419 438.281L638.365 442.84C642.681 445.039 641.661 451.476 636.877 452.233L626.96 453.804C624.821 454.143 623.143 455.821 622.804 457.96L621.233 467.877C620.475 472.661 614.039 473.681 611.84 469.365L607.281 460.419C606.298 458.489 604.184 457.411 602.044 457.75L592.127 459.321C587.343 460.079 584.385 454.272 587.81 450.847L594.909 443.747C596.441 442.216 596.812 439.872 595.829 437.942L591.27 428.996Z" fill="#DCE3E4"/>
<path d="M27.7018 125.426C25.5029 121.11 30.1111 116.502 34.4268 118.701L43.373 123.26C45.3031 124.243 47.6468 123.872 49.1785 122.34L56.2783 115.24C59.7032 111.815 65.51 114.774 64.7523 119.558L63.1816 129.475C62.8427 131.614 63.92 133.729 65.8501 134.712L74.7963 139.27C79.112 141.469 78.0925 147.906 73.3085 148.664L63.3915 150.235C61.2521 150.573 59.5741 152.251 59.2353 154.391L57.6646 164.308C56.9069 169.092 50.4701 170.111 48.2711 165.796L43.7128 156.849C42.7294 154.919 40.615 153.842 38.4756 154.181L28.5586 155.752C23.7746 156.509 20.816 150.703 24.2409 147.278L31.3407 140.178C32.8724 138.646 33.2436 136.302 32.2602 134.372L27.7018 125.426Z" fill="#DCE3E4"/>
<path d="M512.271 883.995C510.072 879.68 514.68 875.071 518.996 877.27L527.942 881.829C529.872 882.812 532.216 882.441 533.748 880.909L540.847 873.809C544.272 870.384 550.079 873.343 549.321 878.127L547.751 888.044C547.412 890.183 548.489 892.298 550.419 893.281L559.365 897.84C563.681 900.038 562.662 906.475 557.878 907.233L547.961 908.804C545.821 909.143 544.143 910.821 543.804 912.96L542.234 922.877C541.476 927.661 535.039 928.68 532.84 924.365L528.282 915.418C527.298 913.488 525.184 912.411 523.045 912.75L513.128 914.321C508.344 915.078 505.385 909.272 508.81 905.847L515.91 898.747C517.441 897.215 517.813 894.872 516.829 892.941L512.271 883.995Z" fill="#DCE3E4"/>
<path d="M263.27 1225C261.071 1220.68 265.68 1216.07 269.995 1218.27L278.942 1222.83C280.872 1223.81 283.215 1223.44 284.747 1221.91L291.847 1214.81C295.272 1211.38 301.079 1214.34 300.321 1219.13L298.75 1229.04C298.411 1231.18 299.489 1233.3 301.419 1234.28L310.365 1238.84C314.681 1241.04 313.661 1247.48 308.877 1248.23L298.96 1249.8C296.821 1250.14 295.143 1251.82 294.804 1253.96L293.233 1263.88C292.475 1268.66 286.039 1269.68 283.84 1265.36L279.281 1256.42C278.298 1254.49 276.184 1253.41 274.044 1253.75L264.127 1255.32C259.343 1256.08 256.385 1250.27 259.81 1246.85L266.909 1239.75C268.441 1238.22 268.812 1235.87 267.829 1233.94L263.27 1225Z" fill="#DCE3E4"/>
<path d="M444.27 1386C442.071 1381.68 446.68 1377.07 450.995 1379.27L459.942 1383.83C461.872 1384.81 464.215 1384.44 465.747 1382.91L472.847 1375.81C476.272 1372.38 482.079 1375.34 481.321 1380.13L479.75 1390.04C479.411 1392.18 480.489 1394.3 482.419 1395.28L491.365 1399.84C495.681 1402.04 494.661 1408.48 489.877 1409.23L479.96 1410.8C477.821 1411.14 476.143 1412.82 475.804 1414.96L474.233 1424.88C473.475 1429.66 467.039 1430.68 464.84 1426.36L460.281 1417.42C459.298 1415.49 457.184 1414.41 455.044 1414.75L445.127 1416.32C440.343 1417.08 437.385 1411.27 440.81 1407.85L447.909 1400.75C449.441 1399.22 449.812 1396.87 448.829 1394.94L444.27 1386Z" fill="#DCE3E4"/>
<path d="M52.2705 1483C50.0715 1478.68 54.6797 1474.07 58.9954 1476.27L67.9416 1480.83C69.8717 1481.81 72.2154 1481.44 73.7471 1479.91L80.8469 1472.81C84.2718 1469.38 90.0786 1472.34 89.3209 1477.13L87.7502 1487.04C87.4113 1489.18 88.4886 1491.3 90.4187 1492.28L99.3649 1496.84C103.681 1499.04 102.661 1505.48 97.8771 1506.23L87.9601 1507.8C85.8207 1508.14 84.1427 1509.82 83.8039 1511.96L82.2332 1521.88C81.4755 1526.66 75.0387 1527.68 72.8397 1523.36L68.2814 1514.42C67.298 1512.49 65.1836 1511.41 63.0442 1511.75L53.1272 1513.32C48.3432 1514.08 45.3846 1508.27 48.8095 1504.85L55.9093 1497.75C57.441 1496.22 57.8122 1493.87 56.8288 1491.94L52.2705 1483Z" fill="#DCE3E4"/>
<path d="M203.27 823.995C201.071 819.68 205.68 815.071 209.995 817.27L218.942 821.829C220.872 822.812 223.215 822.441 224.747 820.909L231.847 813.809C235.272 810.384 241.079 813.343 240.321 818.127L238.75 828.044C238.411 830.183 239.489 832.298 241.419 833.281L250.365 837.84C254.681 840.038 253.661 846.475 248.877 847.233L238.96 848.804C236.821 849.143 235.143 850.821 234.804 852.96L233.233 862.877C232.475 867.661 226.039 868.68 223.84 864.365L219.281 855.418C218.298 853.488 216.184 852.411 214.044 852.75L204.127 854.321C199.343 855.078 196.385 849.272 199.81 845.847L206.909 838.747C208.441 837.215 208.812 834.872 207.829 832.941L203.27 823.995Z" fill="#DCE3E4"/>
<circle cx="950" cy="1512" r="10" fill="#72A0F9"/>
<circle cx="477" cy="1250" r="10" fill="#EBC93E"/>
<circle cx="990" cy="1061" r="10" fill="#7BC5FF"/>
<circle cx="109" cy="253" r="5" fill="#EBC93E"/>
<circle cx="1057" cy="250" r="5" fill="#EBC93E"/>
<circle cx="376" cy="200" r="10" fill="#EBC93E"/>
<circle cx="314" cy="461" r="10" fill="#EBC93E"/>
<path d="M814 1037C814 1039.76 811.762 1042 809 1042C806.239 1042 804 1039.76 804 1037C804 1034.24 806.239 1032 809 1032C811.762 1032 814 1034.24 814 1037Z" fill="#EBC93E"/>
<circle cx="716" cy="1467" r="10" fill="#EBC93E"/>
<path d="M958.5 1131C958.5 1133.76 956.261 1136 953.5 1136C950.739 1136 948.5 1133.76 948.5 1131C948.5 1128.24 950.739 1126 953.5 1126C956.261 1126 958.5 1128.24 958.5 1131Z" fill="#EBC93E"/>
<circle cx="221" cy="155" r="5" fill="#7097ED"/>
<circle cx="5" cy="5" r="5" transform="matrix(-1 0 0 1 537 1502)" fill="#EBC93E"/>
<circle cx="726" cy="1152" r="10" fill="#CFD6F1"/>
<circle cx="920" cy="955" r="10" fill="#EBC93E"/>
<circle cx="540" cy="1134" r="10" fill="#72A0F9"/>
<circle cx="67" cy="872" r="10" fill="#EBC93E"/>
<circle cx="580" cy="683" r="10" fill="#7BC5FF"/>
<circle cx="306" cy="1089" r="10" fill="#EBC93E"/>
<circle cx="5" cy="5" r="5" transform="matrix(-1 0 0 1 127 1124)" fill="#EBC93E"/>
<circle cx="316" cy="774" r="10" fill="#CFD6F1"/>
<circle cx="117" cy="667" r="10" fill="#CFD6F1"/>
<circle cx="510" cy="577" r="10" fill="#EBC93E"/>
<circle cx="1007" cy="567" r="10" fill="#72A0F9"/>
<circle cx="534" cy="305" r="10" fill="#EBC93E"/>
<circle cx="1047" cy="116" r="10" fill="#7BC5FF"/>
<circle cx="314" cy="618" r="10" fill="#7BC5FF"/>
<circle cx="773" cy="522" r="10" fill="#EBC93E"/>
<circle cx="5" cy="5" r="5" transform="matrix(-1 0 0 1 594 557)" fill="#EBC93E"/>
<circle cx="783" cy="207" r="10" fill="#CFD6F1"/>
<circle cx="977" cy="10" r="10" fill="#EBC93E"/>
<path d="M818.291 1543.77C813.659 1542.35 813.546 1535.83 818.125 1534.26L827.619 1530.99C829.667 1530.28 831.028 1528.34 830.99 1526.17L830.815 1516.14C830.731 1511.29 836.893 1509.17 839.807 1513.04L845.85 1521.06C847.154 1522.79 849.423 1523.48 851.471 1522.78L860.965 1519.51C865.544 1517.93 869.466 1523.13 866.688 1527.1L860.929 1535.33C859.687 1537.1 859.728 1539.47 861.032 1541.2L867.074 1549.22C869.989 1553.09 866.251 1558.43 861.619 1557.01L852.017 1554.08C849.946 1553.44 847.702 1554.22 846.46 1555.99L840.701 1564.22C837.923 1568.18 831.69 1566.28 831.606 1561.44L831.431 1551.4C831.393 1549.23 829.965 1547.34 827.893 1546.7L818.291 1543.77Z" fill="#DCE3E4"/>
<path d="M122.667 353.126C99.9812 387.062 113.004 413.125 122.351 421.915C133.536 432.791 157.699 438.608 175.259 435.642C192.819 432.676 208.6 424.809 215.379 420.259C220.802 416.618 266.71 383.861 288.986 367.938L367.972 317.362C372.004 314.647 379.768 308.938 378.571 307.821C377.374 306.705 365.249 310.77 359.336 312.942C327.595 327.335 268.155 352.232 284.327 336.681C316.553 310.556 399.803 286.201 402.991 284.172C406.18 282.142 458.133 268.513 459.253 268.496C460.149 268.482 477.784 263.473 486.49 260.971C495.341 259.088 503.917 255.064 467.414 254.028C430.91 252.991 357.028 271.554 324.65 280.965C322.319 281.251 317.185 281.651 315.297 280.964C313.409 280.276 317.451 277.494 319.708 276.189L383.464 251.544C385.784 250.475 390.267 248.151 389.645 247.414C389.022 246.677 387.675 246.91 387.08 247.118L370.315 249.736C356.697 251.415 291.401 271.557 268.086 279.73C263.205 281.923 254.22 285.274 257.331 281.132C279.5 271.621 322.567 251.199 317.477 245.604C304.46 241.717 239.143 271.748 208.112 287.249C189.083 295.068 145.352 319.19 122.667 353.126Z" fill="#F95B3E"/>
<path d="M129.474 360.153C111.13 384.611 124.993 410.2 134.217 419.937C150.828 435 176.927 426.196 187.9 419.911C193.517 416.922 207.866 407.4 220.331 393.222C231.121 382.178 268.235 360.327 285.443 350.782C288.343 348.931 293.911 345.017 292.973 344.165C292.036 343.314 284.154 346.981 280.33 348.921C266.136 356.302 234.535 370.107 221.675 366.278C214.863 338.491 359.526 287.363 364.758 285.226C368.944 283.517 370.178 282.166 370.272 281.704C370.961 281.033 369.29 280.241 357.088 282.435C342.033 285.249 238.815 325.304 230.6 328.907C222.385 332.509 216.52 332.714 221.494 325.167C225.473 319.129 260.474 302.918 277.478 295.567C284.037 292.638 297.018 286.304 296.464 284.4C295.945 283.786 292.922 283.239 284.982 285.963C272.003 290.417 222.017 310.471 198.007 322.999C196.258 324.134 192.184 326.026 189.886 324.508C189.501 323.73 189.056 322.505 191.654 320.261C193.466 317.73 230.908 295.63 229.822 293.108C228.952 291.09 219.822 293.863 215.365 295.502C194.378 306.862 147.819 335.696 129.474 360.153Z" fill="#FFAA39"/>
<path d="M131.213 399.473C124.231 374.602 148.467 341.078 163.087 341.296C177.707 341.513 193.249 365.484 206.239 379.357C211.173 384.625 204.67 391.237 202.77 393.807C200.477 397.863 191.843 408.143 171.196 419.343C150.55 430.543 135.939 410.763 131.213 399.473Z" fill="#744F60"/>
<path d="M177.45 366.215C176.236 350.461 164.993 341.564 164.993 341.564C181.833 342.889 201.925 375.934 207.073 380.148C212.221 384.361 200.841 397.057 197.748 400.397C190.881 407.811 182.957 412.832 178.845 414.872L177.442 401.727C174.245 402.761 167.487 403.378 166.036 397.576C164.584 391.773 172.149 388.53 176.113 387.633C177.617 383.502 177.345 383.148 178.718 374.97C182.357 374.764 183.659 371.594 183.855 370.035C183.527 368.285 181.786 365.071 177.45 366.215Z" fill="#6E4555"/>
<path d="M161.084 359.977C161.318 362.191 156.153 364.562 153.865 364.722C151.578 364.882 151.354 362.677 151.354 362.677C151.12 360.462 156.285 358.091 158.573 357.931C160.861 357.771 161.084 359.977 161.084 359.977Z" fill="#856371"/>
<path d="M196.077 384.106C196.223 385.489 192.995 386.971 191.565 387.072C190.135 387.172 189.996 385.793 189.996 385.793C189.849 384.409 193.078 382.927 194.507 382.827C195.937 382.727 196.077 384.106 196.077 384.106Z" fill="#856371"/>
<path d="M146.133 385.521C146.367 387.735 141.202 390.106 138.914 390.266C136.626 390.426 136.403 388.221 136.403 388.221C136.169 386.007 141.334 383.635 143.622 383.475C145.909 383.315 146.133 385.521 146.133 385.521Z" fill="#6E4555"/>
<path d="M161.664 406.486C161.898 408.7 156.733 411.071 154.445 411.231C152.158 411.391 151.934 409.186 151.934 409.186C151.7 406.972 156.865 404.6 159.153 404.44C161.441 404.28 161.664 406.486 161.664 406.486Z" fill="#856371"/>
<path d="M149.076 401.876C149.222 403.26 145.994 404.742 144.564 404.842C143.134 404.942 142.995 403.563 142.995 403.563C142.848 402.18 146.077 400.697 147.506 400.597C148.936 400.497 149.076 401.876 149.076 401.876Z" fill="#856371"/>
<defs>
<linearGradient id="paint0_linear_179_3" x1="773.539" y1="1030.5" x2="900.039" y2="1157" gradientUnits="userSpaceOnUse">
<stop stop-color="#8799E0"/>
<stop offset="1" stop-color="#2C408B"/>
</linearGradient>
<linearGradient id="paint1_linear_179_3" x1="705.539" y1="1061" x2="962.539" y2="1178.5" gradientUnits="userSpaceOnUse">
<stop stop-color="#D1C45C"/>
<stop offset="1" stop-color="#9E4C50"/>
</linearGradient>
</defs>
</svg>
