<svg width="529" height="228" viewBox="0 0 529 228" fill="none" xmlns="http://www.w3.org/2000/svg">
<g filter="url(#filter0_d_253_1369)">
<path d="M515 110.792C515 214 515 214 243.503 214C23.7437 214 4.99911 210.275 5 110.792C5.00092 8.00033 108.697 8.00003 243.503 8.00003C499.917 8.00002 515 7.58464 515 110.792Z" fill="#BD7315"/>
</g>
<path d="M510 102.792C510 206 510 206 238.503 206C18.7437 206 -0.000891697 202.275 3.18124e-08 102.792C0.000921422 0.000328064 103.697 2.93688e-05 238.503 2.66102e-05C494.917 2.13632e-05 510 -0.415359 510 102.792Z" fill="#FD9100"/>
<path d="M212 7.00022C218.539 15.5003 161.5 14.5002 102.5 28.0002C34.1209 43.6463 7 88.5002 7 78.0001C7.00001 31.5002 78 11.9049 88 11.0002C98 10.0955 205.461 -1.4999 212 7.00022Z" fill="#FFF4EF" fill-opacity="0.5"/>
<path d="M164.222 80C165.342 80 166.252 80.3733 166.952 81.12C167.652 81.8667 168.002 82.8 168.002 83.92V124.73C168.002 125.943 167.582 126.97 166.742 127.81C165.948 128.603 164.945 129 163.732 129C163.125 129 162.495 128.907 161.842 128.72C161.235 128.487 160.768 128.183 160.442 127.81L132.932 92.88L134.752 91.76V125.08C134.752 126.2 134.378 127.133 133.632 127.88C132.932 128.627 131.998 129 130.832 129C129.712 129 128.802 128.627 128.102 127.88C127.402 127.133 127.052 126.2 127.052 125.08V84.27C127.052 83.0567 127.448 82.0533 128.242 81.26C129.082 80.42 130.108 80 131.322 80C131.975 80 132.652 80.14 133.352 80.42C134.052 80.6533 134.565 81.0267 134.892 81.54L161.562 115.56L160.372 116.4V83.92C160.372 82.8 160.722 81.8667 161.422 81.12C162.122 80.3733 163.055 80 164.222 80ZM208.486 90.85C209.7 90.85 210.703 91.2467 211.496 92.04C212.29 92.8333 212.686 93.86 212.686 95.12V124.73C212.686 125.943 212.29 126.97 211.496 127.81C210.703 128.603 209.7 129 208.486 129C207.273 129 206.27 128.603 205.476 127.81C204.683 126.97 204.286 125.943 204.286 124.73V121.3L205.826 121.93C205.826 122.537 205.5 123.283 204.846 124.17C204.193 125.01 203.306 125.85 202.186 126.69C201.066 127.53 199.736 128.253 198.196 128.86C196.703 129.42 195.07 129.7 193.296 129.7C190.076 129.7 187.16 128.883 184.546 127.25C181.933 125.57 179.856 123.283 178.316 120.39C176.823 117.45 176.076 114.09 176.076 110.31C176.076 106.483 176.823 103.123 178.316 100.23C179.856 97.29 181.91 95.0033 184.476 93.37C187.043 91.69 189.89 90.85 193.016 90.85C195.023 90.85 196.866 91.1533 198.546 91.76C200.226 92.3667 201.673 93.1367 202.886 94.07C204.146 95.0033 205.103 95.96 205.756 96.94C206.456 97.8733 206.806 98.6667 206.806 99.32L204.286 100.23V95.12C204.286 93.9067 204.683 92.9033 205.476 92.11C206.27 91.27 207.273 90.85 208.486 90.85ZM194.346 122C196.4 122 198.196 121.487 199.736 120.46C201.276 119.433 202.466 118.033 203.306 116.26C204.193 114.487 204.636 112.503 204.636 110.31C204.636 108.07 204.193 106.063 203.306 104.29C202.466 102.517 201.276 101.117 199.736 100.09C198.196 99.0633 196.4 98.55 194.346 98.55C192.34 98.55 190.566 99.0633 189.026 100.09C187.486 101.117 186.273 102.517 185.386 104.29C184.546 106.063 184.126 108.07 184.126 110.31C184.126 112.503 184.546 114.487 185.386 116.26C186.273 118.033 187.486 119.433 189.026 120.46C190.566 121.487 192.34 122 194.346 122ZM246.301 129C245.087 129 244.084 128.603 243.291 127.81C242.497 126.97 242.101 125.943 242.101 124.73V81.47C242.101 80.2567 242.497 79.2533 243.291 78.46C244.084 77.62 245.087 77.2 246.301 77.2C247.514 77.2 248.517 77.62 249.311 78.46C250.104 79.2533 250.501 80.2567 250.501 81.47V124.73C250.501 125.943 250.104 126.97 249.311 127.81C248.517 128.603 247.514 129 246.301 129ZM268.561 91.55C269.634 91.55 270.567 91.9933 271.361 92.88C272.154 93.7667 272.551 94.63 272.551 95.47C272.551 96.59 271.991 97.64 270.871 98.62L249.801 118.01L249.451 108.35L265.481 92.88C266.367 91.9933 267.394 91.55 268.561 91.55ZM269.611 128.93C268.397 128.93 267.371 128.463 266.531 127.53L253.581 113.81L259.951 107.93L272.551 121.65C273.437 122.583 273.881 123.633 273.881 124.8C273.881 126.013 273.391 127.017 272.411 127.81C271.477 128.557 270.544 128.93 269.611 128.93ZM290.012 124.73C290.012 125.943 289.592 126.97 288.752 127.81C287.959 128.603 286.956 129 285.742 129C284.576 129 283.596 128.603 282.802 127.81C282.009 126.97 281.612 125.943 281.612 124.73V81.47C281.612 80.2567 282.009 79.2533 282.802 78.46C283.642 77.62 284.669 77.2 285.882 77.2C287.096 77.2 288.076 77.62 288.822 78.46C289.616 79.2533 290.012 80.2567 290.012 81.47V124.73ZM330.439 90.85C331.653 90.85 332.656 91.2467 333.449 92.04C334.243 92.8333 334.639 93.86 334.639 95.12V124.73C334.639 125.943 334.243 126.97 333.449 127.81C332.656 128.603 331.653 129 330.439 129C329.226 129 328.223 128.603 327.429 127.81C326.636 126.97 326.239 125.943 326.239 124.73V121.3L327.779 121.93C327.779 122.537 327.453 123.283 326.799 124.17C326.146 125.01 325.259 125.85 324.139 126.69C323.019 127.53 321.689 128.253 320.149 128.86C318.656 129.42 317.023 129.7 315.249 129.7C312.029 129.7 309.113 128.883 306.499 127.25C303.886 125.57 301.809 123.283 300.269 120.39C298.776 117.45 298.029 114.09 298.029 110.31C298.029 106.483 298.776 103.123 300.269 100.23C301.809 97.29 303.863 95.0033 306.429 93.37C308.996 91.69 311.843 90.85 314.969 90.85C316.976 90.85 318.819 91.1533 320.499 91.76C322.179 92.3667 323.626 93.1367 324.839 94.07C326.099 95.0033 327.056 95.96 327.709 96.94C328.409 97.8733 328.759 98.6667 328.759 99.32L326.239 100.23V95.12C326.239 93.9067 326.636 92.9033 327.429 92.11C328.223 91.27 329.226 90.85 330.439 90.85ZM316.299 122C318.353 122 320.149 121.487 321.689 120.46C323.229 119.433 324.419 118.033 325.259 116.26C326.146 114.487 326.589 112.503 326.589 110.31C326.589 108.07 326.146 106.063 325.259 104.29C324.419 102.517 323.229 101.117 321.689 100.09C320.149 99.0633 318.353 98.55 316.299 98.55C314.293 98.55 312.519 99.0633 310.979 100.09C309.439 101.117 308.226 102.517 307.339 104.29C306.499 106.063 306.079 108.07 306.079 110.31C306.079 112.503 306.499 114.487 307.339 116.26C308.226 118.033 309.439 119.433 310.979 120.46C312.519 121.487 314.293 122 316.299 122ZM347.935 129C346.721 129 345.718 128.603 344.925 127.81C344.131 126.97 343.735 125.943 343.735 124.73V95.82C343.735 94.6067 344.131 93.6033 344.925 92.81C345.718 91.97 346.721 91.55 347.935 91.55C349.148 91.55 350.151 91.97 350.945 92.81C351.738 93.6033 352.135 94.6067 352.135 95.82V102.4L351.645 97.71C352.158 96.59 352.811 95.61 353.605 94.77C354.445 93.8833 355.378 93.16 356.405 92.6C357.431 91.9933 358.528 91.55 359.695 91.27C360.861 90.99 362.028 90.85 363.195 90.85C364.595 90.85 365.761 91.2467 366.695 92.04C367.675 92.8333 368.165 93.7667 368.165 94.84C368.165 96.38 367.768 97.5 366.975 98.2C366.181 98.8533 365.318 99.18 364.385 99.18C363.498 99.18 362.681 99.0167 361.935 98.69C361.235 98.3633 360.418 98.2 359.485 98.2C358.645 98.2 357.781 98.41 356.895 98.83C356.055 99.2033 355.261 99.81 354.515 100.65C353.815 101.49 353.231 102.54 352.765 103.8C352.345 105.013 352.135 106.46 352.135 108.14V124.73C352.135 125.943 351.738 126.97 350.945 127.81C350.151 128.603 349.148 129 347.935 129ZM378.916 113.53C377.329 113.53 376.466 112.643 376.326 110.87L374.296 85.11C374.203 83.6633 374.576 82.45 375.416 81.47C376.303 80.49 377.446 80 378.846 80C380.246 80 381.389 80.49 382.276 81.47C383.163 82.45 383.536 83.6633 383.396 85.11L381.436 110.87C381.296 112.643 380.456 113.53 378.916 113.53ZM378.426 129C377.073 129 376.023 128.65 375.276 127.95C374.576 127.203 374.226 126.153 374.226 124.8V123.61C374.226 122.257 374.576 121.23 375.276 120.53C376.023 119.783 377.073 119.41 378.426 119.41H379.336C380.689 119.41 381.716 119.783 382.416 120.53C383.163 121.23 383.536 122.257 383.536 123.61V124.8C383.536 126.153 383.163 127.203 382.416 127.95C381.716 128.65 380.689 129 379.336 129H378.426Z" fill="#FFF4EF"/>
<defs>
<filter id="filter0_d_253_1369" x="5" y="8" width="524" height="220" filterUnits="userSpaceOnUse" color-interpolation-filters="sRGB">
<feFlood flood-opacity="0" result="BackgroundImageFix"/>
<feColorMatrix in="SourceAlpha" type="matrix" values="0 0 0 0 0 0 0 0 0 0 0 0 0 0 0 0 0 0 127 0" result="hardAlpha"/>
<feOffset dx="10" dy="10"/>
<feGaussianBlur stdDeviation="2"/>
<feComposite in2="hardAlpha" operator="out"/>
<feColorMatrix type="matrix" values="0 0 0 0 0 0 0 0 0 0 0 0 0 0 0 0 0 0 0.25 0"/>
<feBlend mode="normal" in2="BackgroundImageFix" result="effect1_dropShadow_253_1369"/>
<feBlend mode="normal" in="SourceGraphic" in2="effect1_dropShadow_253_1369" result="shape"/>
</filter>
</defs>
</svg>
